<?xml version="1.0" encoding="UTF-8"?>
<svg width="423px" height="87px" viewBox="0 0 423 87" version="1.1" xmlns="http://www.w3.org/2000/svg" xmlns:xlink="http://www.w3.org/1999/xlink">
    <!-- Generator: Sketch 52.6 (67491) - http://www.bohemiancoding.com/sketch -->
    <title>pelicula_logo_white</title>
    <desc>Created with Sketch.</desc>
    <g id="Page-1" stroke="none" stroke-width="1" fill="none" fill-rule="evenodd">
        <g id="Logos" transform="translate(-98.000000, -327.000000)" fill="#FFFFFF">
            <g id="pelicula_logo_white" transform="translate(92.000000, 317.000000)">
                <g transform="translate(6.000000, 0.000000)">
                    <path d="M91.5381556,87.8726185 C88.9634836,83.1086178 90.3698506,83.718299 88.9634836,83.1086178 C83.3159293,80.6603181 76.0389998,82.7099577 71.0449106,83.1086178 C77.3563462,75.8822624 81.1875836,66.3938625 81.1875836,56.0001535 C81.1875836,33.3557622 63.0119258,15 40.5930319,15 C18.1756578,14.999693 0,33.3557622 0,55.9998465 C0,78.6439308 18.1756578,97 40.5930319,97 C46.3933826,97 51.908176,95.7686692 56.8992708,93.5549753 C57.0647693,93.5015593 58.2775133,92.9132159 58.4948346,92.8053094 C62.9812273,90.6896983 76.2186769,85.674274 88.3161776,93.1741561 C89.7653914,94.0725579 91.6620135,93.6146845 92.551663,92.150503 C92.8642717,91.6361885 93.838241,88.6915936 93.96567,88.5808865 C94.2010135,88.3764259 93.2084376,90.9631966 91.5381556,87.8726185 Z M59.9100694,40.4922746 C65.1625491,38.7855513 70.8032796,41.659093 72.508117,46.910296 C74.2141676,52.1616722 71.3398978,57.801468 66.0891514,59.5081913 C60.8389249,61.2140479 55.1987144,58.3399862 53.4916238,53.0889566 C51.7862665,47.838447 54.6598429,42.1976113 59.9100694,40.4922746 Z M41.9986131,23 C47.5219999,23 52,27.4773454 52,33.00026 C52,38.5226546 47.5219999,43 41.9986131,43 C36.4766132,43 32,38.5226546 32,33.00026 C32,27.4775188 36.4769599,23 41.9986131,23 Z M8.49294754,46.9105459 C10.1983004,41.6598237 15.8379763,38.7855672 21.0904423,40.4921299 C26.341175,42.1974794 29.214224,47.8385305 27.5078312,53.088906 C25.801785,58.3404949 20.1617625,61.2144047 14.9115497,59.507842 C9.65891041,57.8017993 6.78464815,52.1619614 8.49294754,46.9105459 Z M36.0903039,81.87726 C32.8433787,86.3450917 26.5905034,87.336017 22.1227523,84.0889858 C17.6548278,80.8429948 16.664402,74.5902493 19.9102871,70.1224176 C23.1559988,65.6549326 29.4090474,64.6645274 33.8771453,67.9099984 C38.3448964,71.1558161 39.3354956,77.409775 36.0903039,81.87726 Z M40.4987208,62 C36.9110926,62 34,59.0904518 34,55.5 C34,51.9095482 36.9108084,49 40.4987208,49 C44.0891916,49 47,51.9095482 47,55.5 C47,59.0904518 44.0891916,62 40.4987208,62 Z M46.9095463,81.8773813 C43.6644411,77.4100296 44.6553605,71.1562573 49.122646,67.9100164 C53.5904516,64.664469 59.842987,65.655018 63.0891324,70.1223696 C66.3359712,74.590068 65.3450517,80.8429736 60.8772462,84.0897345 C56.4090939,87.3356287 50.1563851,86.3450797 46.9095463,81.8773813 Z" id="Shape" fill-rule="nonzero"></path>
                    <text id="Película" font-family="SignPainter-HouseScript, SignPainter" font-size="130" font-style="condensed" font-weight="normal">
                        <tspan x="90" y="91">Película</tspan>
                    </text>
                </g>
            </g>
        </g>
    </g>
</svg>